<?xml version="1.0" encoding="UTF-8" standalone="no"?>
<!DOCTYPE svg PUBLIC "-//W3C//DTD SVG 1.1//EN" "http://www.w3.org/Graphics/SVG/1.1/DTD/svg11.dtd">
<svg width="456" height="456" viewBox="0 0 456 456" version="1.1" xmlns="http://www.w3.org/2000/svg" xmlns:xlink="http://www.w3.org/1999/xlink" xml:space="preserve" xmlns:serif="http://www.serif.com/" style="fill-rule:evenodd;clip-rule:evenodd;stroke-linejoin:round;stroke-miterlimit:2;">
    <path
   id="path34625"
   style="display:inline;fill:#3498db;fill-opacity:1;stroke-width:0.400288"
   d="m 203.28792,127.53701 c -8.19201,-0.10781 -16.35673,2.45104 -23.90552,7.6414 -2.91607,2.00502 -32.1254,33.1812 -33.93643,36.22156 -8.38264,14.07284 -8.29225,29.25063 0.25529,42.86767 1.63349,2.6023 2.6953,3.69719 14.71744,15.17478 l 12.28452,11.72797 -0.50642,0.54002 -2.67943,2.85925 a 9.3000525,9.3000525 0 0 0 0.4284,13.14545 l 64.7113,60.62938 a 9.3000525,9.3000525 0 0 0 13.14544,-0.42788 l 84.44033,-90.12577 a 9.3000525,9.3000525 0 0 0 -0.4284,-13.14545 l -64.71129,-60.62937 a 9.3000525,9.3000525 0 0 0 -13.14545,0.4284 l -3.17552,3.38894 -12.50673,-11.49026 c -12.18854,-11.19831 -13.41266,-12.2394 -16.10031,-13.69839 -6.12772,-3.32641 -12.51566,-5.02383 -18.88722,-5.1077 z m -1.0604,28.6458 a 16.711351,13.836311 43.134582 0 1 11.39362,5.12217 l 18.05781,16.91783 -38.59247,41.19128 -18.0573,-16.91886 a 16.711351,13.836311 43.134582 0 1 -2.73472,-21.52272 l 19.67167,-20.99665 a 16.711351,13.836311 43.134582 0 1 10.26139,-3.79305 z" />
      <path
   d="m 190.33708,226.13842 q 0,1.70533 -0.6029,3.16949 -0.58566,1.44695 -1.65364,2.51493 -1.32637,1.32636 -3.13504,1.99815 -1.80868,0.65457 -4.56476,0.65457 h -3.41064 v 9.56015 h -3.41065 v -25.64876 h 6.9591 q 2.30821,0 3.91018,0.39619 1.60197,0.37896 2.84221,1.20578 1.46417,0.98186 2.25654,2.44602 0.8096,1.46417 0.8096,3.70348 z m -3.54845,0.0861 q 0,-1.32636 -0.46509,-2.30821 -0.46509,-0.98186 -1.41249,-1.60197 -0.82683,-0.53399 -1.89481,-0.75793 -1.05075,-0.24115 -2.66995,-0.24115 h -3.37619 v 10.24916 h 2.87665 q 2.06706,0 3.35897,-0.36173 1.29192,-0.37896 2.10151,-1.18856 0.8096,-0.82682 1.13689,-1.73978 0.34451,-0.91295 0.34451,-2.04983 z"
   style="font-size:35.2778px;fill:#ffffff"
   id="path825" />
      <path
   d="m 208.665,244.03571 h -3.22117 v -2.04984 q -0.43064,0.29284 -1.17133,0.82683 -0.72347,0.51676 -1.41249,0.82682 -0.8096,0.39619 -1.86036,0.65457 -1.05075,0.27561 -2.46324,0.27561 -2.60105,0 -4.40973,-1.72255 -1.80867,-1.72255 -1.80867,-4.3925 0,-2.18764 0.93017,-3.53123 0.94741,-1.36081 2.68718,-2.13596 1.757,-0.77514 4.22025,-1.05075 2.46324,-0.27561 5.28822,-0.41341 v -0.49954 q 0,-1.10243 -0.39619,-1.8259 -0.37896,-0.72348 -1.10243,-1.13689 -0.68902,-0.39618 -1.65364,-0.53399 -0.96463,-0.1378 -2.01539,-0.1378 -1.27468,0 -2.8422,0.34451 -1.56752,0.32728 -3.23839,0.96463 h -0.17226 v -3.29007 q 0.9474,-0.25838 2.73885,-0.56844 1.79146,-0.31006 3.53123,-0.31006 2.03261,0 3.53122,0.34451 1.51585,0.32728 2.61828,1.13688 1.0852,0.79237 1.65365,2.04983 0.56844,1.25746 0.56844,3.11782 z m -3.22117,-4.73701 v -5.35713 q -1.48139,0.0861 -3.49677,0.25838 -1.99816,0.17226 -3.16949,0.49954 -1.39527,0.39619 -2.25654,1.24024 -0.86128,0.82682 -0.86128,2.29099 0,1.65364 0.99908,2.49769 0.99908,0.82683 3.04891,0.82683 1.70533,0 3.11782,-0.65457 1.41249,-0.6718 2.61827,-1.60197 z"
   style="font-size:35.2778px;fill:#ffffff"
   id="path827" />
      <path
   d="m 228.64656,238.4891 q 0,2.6355 -2.18763,4.3236 -2.17041,1.6881 -5.9428,1.6881 -2.13596,0 -3.92741,-0.49954 -1.77422,-0.51677 -2.98001,-1.11966 v -3.63458 h 0.17226 q 1.53307,1.15411 3.41064,1.84313 1.87758,0.67179 3.60013,0.67179 2.13596,0 3.34175,-0.68902 1.20578,-0.68902 1.20578,-2.17041 0,-1.13688 -0.65457,-1.72255 -0.65457,-0.58566 -2.51492,-0.99908 -0.68902,-0.15503 -1.80868,-0.36173 -1.10243,-0.20671 -2.01538,-0.44786 -2.53215,-0.6718 -3.60013,-1.96371 -1.05075,-1.30914 -1.05075,-3.20394 0,-1.18856 0.48231,-2.23931 0.49954,-1.05076 1.49862,-1.87758 0.96463,-0.8096 2.44602,-1.27469 1.49862,-0.48231 3.34175,-0.48231 1.72254,0 3.47954,0.43063 1.77423,0.41342 2.94556,1.01631 v 3.46232 h -0.17225 q -1.24024,-0.91295 -3.01446,-1.53307 -1.77423,-0.63734 -3.47955,-0.63734 -1.77423,0 -2.99724,0.68902 -1.22301,0.67179 -1.22301,2.01538 0,1.18856 0.7407,1.79145 0.72347,0.6029 2.34267,0.98186 0.89572,0.2067 1.99815,0.41341 1.11966,0.2067 1.86036,0.37896 2.25653,0.51676 3.47954,1.77422 1.22301,1.27469 1.22301,3.3762 z"
   style="font-size:35.2778px;fill:#ffffff"
   id="path829" />
      <path
   d="m 247.02616,238.4891 q 0,2.6355 -2.18764,4.3236 -2.17041,1.6881 -5.94279,1.6881 -2.13596,0 -3.92742,-0.49954 -1.77422,-0.51677 -2.98,-1.11966 v -3.63458 h 0.17225 q 1.53307,1.15411 3.41065,1.84313 1.87758,0.67179 3.60012,0.67179 2.13596,0 3.34175,-0.68902 1.20578,-0.68902 1.20578,-2.17041 0,-1.13688 -0.65457,-1.72255 -0.65456,-0.58566 -2.51492,-0.99908 -0.68902,-0.15503 -1.80867,-0.36173 -1.10243,-0.20671 -2.01539,-0.44786 -2.53214,-0.6718 -3.60012,-1.96371 -1.05075,-1.30914 -1.05075,-3.20394 0,-1.18856 0.48231,-2.23931 0.49954,-1.05076 1.49861,-1.87758 0.96463,-0.8096 2.44602,-1.27469 1.49862,-0.48231 3.34175,-0.48231 1.72255,0 3.47955,0.43063 1.77422,0.41342 2.94556,1.01631 v 3.46232 h -0.17226 q -1.24023,-0.91295 -3.01446,-1.53307 -1.77423,-0.63734 -3.47955,-0.63734 -1.77422,0 -2.99723,0.68902 -1.22301,0.67179 -1.22301,2.01538 0,1.18856 0.74069,1.79145 0.72347,0.6029 2.34267,0.98186 0.89572,0.2067 1.99816,0.41341 1.11965,0.2067 1.86035,0.37896 2.25654,0.51676 3.47955,1.77422 1.22301,1.27469 1.22301,3.3762 z"
   style="font-size:35.2778px;fill:#ffffff"
   id="path831" />
      <path
   d="m 271.48635,218.38695 -8.8539,12.67796 8.83668,12.9708 h -3.94464 l -6.99355,-10.55923 -7.1658,10.55923 h -3.72071 l 8.94003,-12.81577 -8.73332,-12.83299 h 3.92741 l 6.90742,10.42142 7.06245,-10.42142 z"
   style="font-size:35.2778px;fill:#ffffff"
   id="path833" />
      <path
   d="m 294.24122,218.38695 -9.02616,14.40051 v 11.24825 h -3.41064 V 233.1492 l -9.06061,-14.76225 h 3.77238 l 7.01078,11.47218 7.07967,-11.47218 z"
   style="font-size:35.2778px;fill:#ffffff"
   id="path835" />
      <path
   d="m 316.531,244.03571 h -20.01601 v -3.16949 l 15.72687,-19.44758 h -15.14121 v -3.03169 h 19.05139 v 3.08337 l -15.8819,19.5337 H 316.531 Z"
   style="font-size:35.2778px;fill:#ffffff"
   id="path837" />
</svg>
