<?xml version="1.0" encoding="UTF-8" standalone="no"?>
<svg
   width="456"
   height="456"
   viewBox="0 0 456 456"
   version="1.1"
   xml:space="preserve"
   style="fill-rule:evenodd;clip-rule:evenodd;stroke-linejoin:round;stroke-miterlimit:2;"
   id="svg10"
   sodipodi:docname="passxyz_logo.svg"
   inkscape:version="1.1 (c68e22c387, 2021-05-23)"
   xmlns:inkscape="http://www.inkscape.org/namespaces/inkscape"
   xmlns:sodipodi="http://sodipodi.sourceforge.net/DTD/sodipodi-0.dtd"
   xmlns="http://www.w3.org/2000/svg"
   xmlns:svg="http://www.w3.org/2000/svg"><defs
   id="defs14" /><sodipodi:namedview
   id="namedview12"
   pagecolor="#ffffff"
   bordercolor="#666666"
   borderopacity="1.0"
   inkscape:pageshadow="2"
   inkscape:pageopacity="0.0"
   inkscape:pagecheckerboard="0"
   showgrid="false"
   inkscape:zoom="1.8245614"
   inkscape:cx="228"
   inkscape:cy="238.13942"
   inkscape:window-width="1920"
   inkscape:window-height="1017"
   inkscape:window-x="-8"
   inkscape:window-y="-8"
   inkscape:window-maximized="1"
   inkscape:current-layer="svg10" />
    <path
   id="path34625"
   style="display:inline;opacity:0.97;fill:#3498db;fill-opacity:1;stroke-width:0.724706"
   d="m 168.77673,49.712757 c -14.78218,-0.195841 -29.5151,4.452273 -43.1366,13.880475 -5.26195,3.642083 -57.969075,60.273128 -61.237004,65.795888 -15.126163,25.56308 -14.963054,53.1333 0.460659,77.86843 2.947576,4.72703 4.863563,6.71589 26.557066,27.56474 l 22.166949,21.30367 -0.91382,0.98094 -4.83494,5.19378 a 16.781592,16.893395 0 0 0 0.77304,23.8785 l 116.76909,110.13229 a 16.781592,16.893395 0 0 0 23.72044,-0.77724 l 152.36938,-163.712 a 16.781592,16.893395 0 0 0 -0.77303,-23.8785 L 283.92888,97.811447 a 16.781592,16.893395 0 0 0 -23.72046,0.778188 L 254.47831,104.74559 231.9104,83.873717 C 209.91664,63.532167 207.70776,61.641041 202.85799,58.990812 191.80076,52.948445 180.27397,49.865104 168.77673,49.712757 Z m -1.91346,52.034633 a 30.25053,25.054064 44.153861 0 1 20.55936,9.30434 l 32.58464,30.73096 -69.63865,74.8233 -32.58371,-30.73284 a 30.25053,25.054064 44.153861 0 1 -4.93471,-39.09567 l 35.49678,-38.14008 a 30.25053,25.054064 44.153861 0 1 18.51629,-6.89001 z" />
      <path
   d="m 145.40742,228.82063 q 0,3.09771 -1.0879,5.75732 -1.05681,2.62837 -2.98394,4.56833 -2.39338,2.40931 -5.65705,3.62961 -3.2637,1.18902 -8.23694,1.18902 h -6.15437 v 17.36586 h -6.15439 v -46.59056 h 12.55743 q 4.16508,0 7.05577,0.71967 2.89069,0.68837 5.12867,2.19028 2.64203,1.78354 4.07184,4.44316 1.46088,2.65964 1.46088,6.72731 z m -6.40303,0.1564 q 0,-2.40931 -0.83924,-4.19283 -0.83925,-1.78352 -2.54879,-2.90995 -1.49198,-0.96998 -3.41911,-1.37677 -1.89604,-0.43805 -4.81782,-0.43805 h -6.09221 v 18.61745 h 5.1908 q 3.72994,0 6.06114,-0.65708 2.33121,-0.68838 3.79209,-2.15901 1.4609,-1.50191 2.05148,-3.16028 0.62166,-1.65836 0.62166,-3.72348 z"
   style="font-size:35.2778px;opacity:0.97;fill:#ffffff;stroke-width:1.81046"
   id="path825" />
      <path
   d="m 178.47946,261.33077 h -5.81248 v -3.72351 q -0.77707,0.53194 -2.11362,1.50192 -1.30547,0.93869 -2.54878,1.50192 -1.4609,0.71967 -3.35695,1.18901 -1.89603,0.50064 -4.44483,0.50064 -4.69349,0 -7.95719,-3.12899 -3.26367,-3.12898 -3.26367,-7.9789 0,-3.97382 1.67846,-6.41442 1.70956,-2.47189 4.84891,-3.87994 3.17043,-1.40803 7.61528,-1.90867 4.44483,-0.50064 9.54239,-0.75095 v -0.90741 q 0,-2.00254 -0.7149,-3.31671 -0.68383,-1.3142 -1.9893,-2.06515 -1.24331,-0.71965 -2.98393,-0.96998 -1.74064,-0.25032 -3.63669,-0.25032 -2.30011,0 -5.12865,0.62581 -2.82853,0.59449 -5.84355,1.75223 h -0.31084 v -5.97636 q 1.70955,-0.46935 4.94216,-1.03256 3.23261,-0.56322 6.37197,-0.56322 3.66777,0 6.37194,0.62579 2.7353,0.5945 4.72459,2.06513 1.95821,1.43932 2.98396,3.72348 1.02572,2.28415 1.02572,5.66347 z m -5.81248,-8.60471 v -9.73114 q -2.67311,0.1564 -6.30979,0.46935 -3.60559,0.3129 -5.71922,0.9074 -2.51771,0.71967 -4.07184,2.25288 -1.55414,1.50191 -1.55414,4.16155 0,3.00381 1.8028,4.53701 1.8028,1.50192 5.50164,1.50192 3.0772,0 5.62598,-1.18902 2.54879,-1.22031 4.72457,-2.90995 z"
   style="font-size:35.2778px;opacity:0.97;fill:#ffffff;stroke-width:1.81046"
   id="path827" />
      <path
   d="m 214.53543,251.25544 q 0,4.78734 -3.9475,7.85374 -3.91641,3.06642 -10.72355,3.06642 -3.85426,0 -7.08686,-0.90741 -3.20152,-0.93871 -5.37732,-2.03385 v -6.60215 h 0.31083 q 2.76638,2.09642 6.15438,3.34801 3.38802,1.2203 6.49629,1.2203 3.85426,0 6.03006,-1.25159 2.17579,-1.2516 2.17579,-3.94252 0,-2.06512 -1.18114,-3.12898 -1.18115,-1.06384 -4.53809,-1.81482 -1.2433,-0.28161 -3.26369,-0.65708 -1.98929,-0.37548 -3.63668,-0.81352 -4.56916,-1.22032 -6.49629,-3.56705 -1.89604,-2.37803 -1.89604,-5.8199 0,-2.159 0.8703,-4.06767 0.90141,-1.9087 2.70421,-3.4106 1.74064,-1.47063 4.41375,-2.31545 2.7042,-0.87611 6.03006,-0.87611 3.10826,0 6.27869,0.78223 3.20154,0.75097 5.31516,1.84611 v 6.28924 h -0.31082 q -2.23796,-1.65834 -5.43947,-2.78479 -3.20154,-1.15772 -6.27872,-1.15772 -3.20153,0 -5.40841,1.25159 -2.20687,1.2203 -2.20687,3.66092 0,2.159 1.33657,3.25414 1.30546,1.09515 4.22725,1.78352 1.61629,0.37547 3.60559,0.75096 2.02038,0.37547 3.35695,0.68837 4.07182,0.93869 6.2787,3.22284 2.20687,2.31545 2.20687,6.13282 z"
   style="font-size:35.2778px;opacity:0.97;fill:#ffffff;stroke-width:1.81046"
   id="path829" />
      <path
   d="m 247.70071,251.25544 q 0,4.78734 -3.94751,7.85374 -3.91641,3.06642 -10.72353,3.06642 -3.85426,0 -7.08688,-0.90741 -3.20151,-0.93871 -5.3773,-2.03385 v -6.60215 h 0.31082 q 2.76636,2.09642 6.15439,3.34801 3.38801,1.2203 6.49627,1.2203 3.85426,0 6.03007,-1.25159 2.17578,-1.2516 2.17578,-3.94252 0,-2.06512 -1.18114,-3.12898 -1.18113,-1.06384 -4.53808,-1.81482 -1.24331,-0.28161 -3.26367,-0.65708 -1.9893,-0.37548 -3.63671,-0.81352 -4.56914,-1.22032 -6.49627,-3.56705 -1.89604,-2.37803 -1.89604,-5.8199 0,-2.159 0.87031,-4.06767 0.9014,-1.9087 2.70418,-3.4106 1.74064,-1.47063 4.41375,-2.31545 2.70421,-0.87611 6.03006,-0.87611 3.10828,0 6.27872,0.78223 3.20152,0.75097 5.31515,1.84611 v 6.28924 h -0.31083 q -2.23795,-1.65834 -5.43948,-2.78479 -3.20154,-1.15772 -6.27872,-1.15772 -3.20151,0 -5.40838,1.25159 -2.20688,1.2203 -2.20688,3.66092 0,2.159 1.33655,3.25414 1.30546,1.09515 4.22725,1.78352 1.6163,0.37547 3.60561,0.75096 2.02037,0.37547 3.35692,0.68837 4.07186,0.93869 6.27872,3.22284 2.20687,2.31545 2.20687,6.13282 z"
   style="font-size:35.2778px;opacity:0.97;fill:#ffffff;stroke-width:1.81046"
   id="path831" />
      <path
   d="m 291.8382,214.74021 -15.97652,23.02931 15.94545,23.56125 h -7.11795 l -12.6196,-19.18068 -12.93041,19.18068 h -6.71389 l 16.13195,-23.27964 -15.75894,-23.31092 h 7.08686 l 12.46418,18.93035 12.74392,-18.93035 z"
   style="font-size:35.2778px;opacity:0.97;fill:#ffffff;stroke-width:1.81046"
   id="path833" />
      <path
   d="m 332.89851,214.74021 -16.28738,26.15829 v 20.43227 h -6.15436 v -19.77518 l -16.34953,-26.81538 h 6.80712 l 12.65069,20.83903 12.77499,-20.83903 z"
   style="font-size:35.2778px;opacity:0.97;fill:#ffffff;stroke-width:1.81046"
   id="path835" />
      <path
   d="m 373.11956,261.33077 h -36.11812 v -5.75733 l 28.37854,-35.32621 h -27.32174 v -5.50702 h 34.37751 v 5.60089 l -28.65828,35.48265 h 29.34209 z"
   style="font-size:35.2778px;opacity:0.97;fill:#ffffff;stroke-width:1.81046"
   id="path837" />
</svg>
