<?xml version="1.0" encoding="UTF-8" standalone="no"?>
<svg
   width="456"
   height="456"
   viewBox="0 0 456 456"
   version="1.1"
   xml:space="preserve"
   style="fill-rule:evenodd;clip-rule:evenodd;stroke-linejoin:round;stroke-miterlimit:2;"
   id="svg10"
   sodipodi:docname="appiconfg.svg"
   inkscape:version="1.2 (dc2aedaf03, 2022-05-15)"
   xmlns:inkscape="http://www.inkscape.org/namespaces/inkscape"
   xmlns:sodipodi="http://sodipodi.sourceforge.net/DTD/sodipodi-0.dtd"
   xmlns="http://www.w3.org/2000/svg"
   xmlns:svg="http://www.w3.org/2000/svg"><defs
   id="defs14" /><sodipodi:namedview
   id="namedview12"
   pagecolor="#ffffff"
   bordercolor="#666666"
   borderopacity="1.0"
   inkscape:showpageshadow="2"
   inkscape:pageopacity="0.0"
   inkscape:pagecheckerboard="0"
   inkscape:deskcolor="#d1d1d1"
   showgrid="false"
   inkscape:zoom="1.8355263"
   inkscape:cx="227.7276"
   inkscape:cy="228.2724"
   inkscape:window-width="1920"
   inkscape:window-height="1017"
   inkscape:window-x="-8"
   inkscape:window-y="-8"
   inkscape:window-maximized="1"
   inkscape:current-layer="svg10" />
    <path
   id="path34625"
   style="display:inline;fill:#dfd8f7;fill-opacity:1;stroke-width:0.625739"
   d="m 179.96105,81.230605 c -12.80266,-0.168574 -25.56268,3.832487 -37.36012,11.948213 -4.55731,3.135084 -50.206352,51.882642 -53.036671,56.636592 -13.100598,22.00451 -12.959329,45.73674 0.398974,67.02855 2.552856,4.069 4.212273,5.78099 23.000757,23.72753 l 19.19855,18.33803 -0.79144,0.84438 -4.18748,4.47078 a 14.534349,14.541707 0 0 0 0.66951,20.55442 l 101.1324,94.80104 a 14.534349,14.541707 0 0 0 20.54402,-0.66903 l 131.9654,-140.92206 a 14.534349,14.541707 0 0 0 -0.66951,-20.55443 L 279.69306,122.63359 a 14.534349,14.541707 0 0 0 -20.54403,0.66986 l -4.96278,5.29899 -19.54583,-17.96634 C 215.59188,93.126253 213.67879,91.498385 209.47847,89.217086 199.90192,84.015862 189.91869,81.361744 179.96105,81.230605 Z m -1.65721,44.791015 a 26.123096,21.629546 43.21214 0 1 17.80623,8.00911 l 28.22119,26.45298 -60.31326,64.40732 -28.22039,-26.45459 a 26.123096,21.629546 43.21214 0 1 -4.27388,-33.65325 l 30.74336,-32.8307 a 26.123096,21.629546 43.21214 0 1 16.03675,-5.93087 z" />
      <path
   d="m 159.72117,235.40531 q 0,2.66647 -0.94222,4.95586 -0.91529,2.26247 -2.58435,3.93238 -2.07289,2.07392 -4.89952,3.12434 -2.82665,1.02349 -7.13392,1.02349 h -5.33023 v 14.9484 h -5.33024 v -40.1048 h 10.87585 q 3.60732,0 6.11092,0.61949 2.5036,0.59255 4.44187,1.88537 2.28824,1.53526 3.52658,3.82464 1.26526,2.2894 1.26526,5.79083 z m -5.5456,0.13462 q 0,-2.07392 -0.72686,-3.60915 -0.72685,-1.53526 -2.20747,-2.50487 -1.29219,-0.83495 -2.96126,-1.18511 -1.64213,-0.37707 -4.17266,-0.37707 h -5.27639 v 16.02575 h 4.4957 q 3.23045,0 5.24948,-0.56561 2.01904,-0.59255 3.28429,-1.85845 1.26527,-1.29283 1.77676,-2.72034 0.53841,-1.42751 0.53841,-3.20515 z"
   style="font-size:35.2778px;fill:#512bd4;stroke-width:1.56322"
   id="path825" />
      <path
   d="m 188.36449,263.38978 h -5.03412 v -3.20515 q -0.67302,0.45788 -1.83058,1.29283 -1.13066,0.80802 -2.20748,1.29283 -1.26526,0.61949 -2.90741,1.0235 -1.64215,0.43095 -3.84962,0.43095 -4.06498,0 -6.89163,-2.6934 -2.82664,-2.69341 -2.82664,-6.86819 0,-3.42063 1.4537,-5.52149 1.48064,-2.12779 4.19959,-3.33982 2.74588,-1.21201 6.59551,-1.64297 3.84961,-0.43095 8.26456,-0.64641 v -0.78109 q 0,-1.72377 -0.61917,-2.85501 -0.59225,-1.13124 -1.72292,-1.77766 -1.07681,-0.61946 -2.58434,-0.83495 -1.50755,-0.21547 -3.1497,-0.21547 -1.9921,0 -4.44186,0.53869 -2.44975,0.51173 -5.06103,1.5083 h -0.26922 v -5.14439 q 1.48063,-0.40401 4.28034,-0.88883 2.79974,-0.48481 5.5187,-0.48481 3.17661,0 5.51868,0.53867 2.369,0.51175 4.0919,1.77765 1.69599,1.23897 2.58438,3.20514 0.88836,1.96619 0.88836,4.87508 z m -5.03412,-7.40686 v -8.37649 q -2.31515,0.13463 -5.46484,0.404 -3.12278,0.26935 -4.95336,0.78109 -2.18055,0.61949 -3.52657,1.93926 -1.34603,1.29284 -1.34603,3.58223 0,2.58565 1.56139,3.90543 1.56138,1.29284 4.76491,1.29284 2.66513,0 4.87261,-1.02349 2.20747,-1.05044 4.09189,-2.50487 z"
   style="font-size:35.2778px;fill:#512bd4;stroke-width:1.56322"
   id="path827" />
      <path
   d="m 219.59217,254.71701 q 0,4.12092 -3.41889,6.76045 -3.39196,2.63954 -9.28755,2.63954 -3.33813,0 -6.13786,-0.78108 -2.77279,-0.80804 -4.65722,-1.75072 v -5.68308 h 0.2692 q 2.39593,1.80458 5.33024,2.88194 2.93432,1.05042 5.62637,1.05042 3.33813,0 5.22257,-1.07736 1.88442,-1.07737 1.88442,-3.39369 0,-1.77764 -1.02298,-2.69341 -1.02298,-0.91574 -3.93037,-1.56217 -1.07683,-0.24241 -2.82666,-0.56561 -1.7229,-0.32322 -3.14968,-0.70028 -3.95731,-1.05044 -5.62637,-3.07048 -1.64215,-2.047 -1.64215,-5.00973 0,-1.85846 0.75377,-3.50143 0.7807,-1.64298 2.34209,-2.93581 1.50754,-1.2659 3.8227,-1.99312 2.34207,-0.75415 5.22256,-0.75415 2.69203,0 5.43792,0.67333 2.7728,0.64644 4.60338,1.58912 v 5.41374 h -0.26919 q -1.93828,-1.4275 -4.71108,-2.39712 -2.7728,-0.99656 -5.43792,-0.99656 -2.77281,0 -4.68416,1.07736 -1.91135,1.05042 -1.91135,3.15128 0,1.85845 1.15759,2.80114 1.13066,0.94269 3.66118,1.53525 1.39986,0.3232 3.12276,0.64641 1.74983,0.32321 2.90741,0.59255 3.52657,0.80802 5.43792,2.7742 1.91135,1.99312 1.91135,5.27907 z"
   style="font-size:35.2778px;fill:#512bd4;stroke-width:1.56322"
   id="path829" />
      <path
   d="m 248.31625,254.71701 q 0,4.12092 -3.41889,6.76045 -3.39198,2.63954 -9.28755,2.63954 -3.33812,0 -6.13786,-0.78108 -2.7728,-0.80804 -4.65722,-1.75072 v -5.68308 h 0.2692 q 2.39591,1.80458 5.33025,2.88194 2.93432,1.05042 5.62634,1.05042 3.33814,0 5.22257,-1.07736 1.88443,-1.07737 1.88443,-3.39369 0,-1.77764 -1.02298,-2.69341 -1.02296,-0.91574 -3.93038,-1.56217 -1.07681,-0.24241 -2.82663,-0.56561 -1.72291,-0.32322 -3.14971,-0.70028 -3.95728,-1.05044 -5.62634,-3.07048 -1.64215,-2.047 -1.64215,-5.00973 0,-1.85846 0.75377,-3.50143 0.7807,-1.64298 2.34207,-2.93581 1.50755,-1.2659 3.8227,-1.99312 2.34207,-0.75415 5.22257,-0.75415 2.69204,0 5.43792,0.67333 2.7728,0.64644 4.60339,1.58912 v 5.41374 h -0.26921 q -1.93826,-1.4275 -4.71107,-2.39712 -2.77281,-0.99656 -5.43793,-0.99656 -2.77279,0 -4.68414,1.07736 -1.91135,1.05042 -1.91135,3.15128 0,1.85845 1.15757,2.80114 1.13065,0.94269 3.66118,1.53525 1.39985,0.3232 3.12277,0.64641 1.74981,0.32321 2.90741,0.59255 3.52657,0.80802 5.43792,2.7742 1.91135,1.99312 1.91135,5.27907 z"
   style="font-size:35.2778px;fill:#512bd4;stroke-width:1.56322"
   id="path831" />
      <path
   d="m 286.54323,223.28498 -13.8371,19.82345 13.81019,20.28135 h -6.16479 l -10.92968,-16.51057 -11.19888,16.51057 h -5.81482 l 13.9717,-20.03894 -13.64866,-20.06586 h 6.13785 l 10.79509,16.29509 11.03737,-16.29509 z"
   style="font-size:35.2778px;fill:#512bd4;stroke-width:1.56322"
   id="path833" />
      <path
   d="m 322.10509,223.28498 -14.10629,22.51686 v 17.58794 h -5.33024 v -17.02231 l -14.16015,-23.08249 h 5.89558 l 10.95662,17.93808 11.06427,-17.93808 z"
   style="font-size:35.2778px;fill:#512bd4;stroke-width:1.56322"
   id="path835" />
      <path
   d="M 356.94011,263.38978 H 325.6586 v -4.95586 l 24.57834,-30.40854 h -23.66306 v -4.7404 h 29.77398 v 4.8212 l -24.82063,30.5432 h 25.41288 z"
   style="font-size:35.2778px;fill:#512bd4;stroke-width:1.56322"
   id="path837" />
</svg>
