<?xml version="1.0" encoding="UTF-8" standalone="no"?>
<svg
   width="456"
   height="456"
   viewBox="0 0 456 456"
   version="1.1"
   xml:space="preserve"
   style="fill-rule:evenodd;clip-rule:evenodd;stroke-linejoin:round;stroke-miterlimit:2;"
   id="svg10"
   sodipodi:docname="passxyz-blue.svg"
   inkscape:version="1.1 (c68e22c387, 2021-05-23)"
   xmlns:inkscape="http://www.inkscape.org/namespaces/inkscape"
   xmlns:sodipodi="http://sodipodi.sourceforge.net/DTD/sodipodi-0.dtd"
   xmlns="http://www.w3.org/2000/svg"
   xmlns:svg="http://www.w3.org/2000/svg"><defs
   id="defs14" /><sodipodi:namedview
   id="namedview12"
   pagecolor="#ffffff"
   bordercolor="#666666"
   borderopacity="1.0"
   inkscape:pageshadow="2"
   inkscape:pageopacity="0.0"
   inkscape:pagecheckerboard="0"
   showgrid="false"
   inkscape:zoom="1.2901597"
   inkscape:cx="227.87876"
   inkscape:cy="228.26631"
   inkscape:window-width="1920"
   inkscape:window-height="1017"
   inkscape:window-x="-8"
   inkscape:window-y="-8"
   inkscape:window-maximized="1"
   inkscape:current-layer="layer2" />
    
      
      
      
      
      
      
      
<g
   inkscape:groupmode="layer"
   id="layer2"
   inkscape:label="Logo"
   style="display:inline"><path
     id="path34625"
     style="clip-rule:evenodd;display:inline;fill:#512bd4;fill-opacity:1;fill-rule:evenodd;stroke-width:0.792842;stroke-linejoin:round;stroke-miterlimit:2"
     d="m 162.31195,34.154983 c -16.13136,-0.214787 -32.20897,4.883124 -47.07373,15.223703 -5.7422,3.994534 -63.259969,66.105784 -66.826172,72.162994 -16.506737,28.03684 -16.328745,58.27504 0.502706,85.40381 3.216599,5.18448 5.30747,7.36579 28.980956,30.23221 l 24.19016,23.36523 -0.99723,1.07587 -5.27622,5.69638 a 18.313268,18.528181 0 0 0 0.84359,26.18924 l 127.42673,120.78987 a 18.313268,18.528181 0 0 0 25.88544,-0.85246 L 416.24448,233.88731 A 18.313268,18.528181 0 0 0 415.4009,207.69807 L 287.97418,86.908221 a 18.313268,18.528181 0 0 0 -25.88546,0.853486 L 255.83562,94.51338 231.2079,71.621721 C 207.20675,49.311706 204.79626,47.237578 199.50385,44.330882 187.43741,37.703787 174.85855,34.322075 162.31195,34.154983 Z m -2.0881,57.070067 a 33.093274,27.410689 44.927043 0 1 22.43584,10.20472 l 35.55866,33.70482 -75.99464,82.064 -35.55766,-33.70687 a 33.093274,27.410689 44.927043 0 1 -5.3851,-42.879 l 38.73661,-41.83091 a 33.093274,27.410689 44.927043 0 1 20.20629,-7.55676 z" /><text
     xml:space="preserve"
     style="font-style:normal;font-variant:normal;font-weight:bold;font-stretch:normal;font-size:68.5211px;line-height:1.25;font-family:Arial;-inkscape-font-specification:'Arial, Bold';font-variant-ligatures:normal;font-variant-caps:normal;font-variant-numeric:normal;font-variant-east-asian:normal;fill:#ffffff;fill-opacity:1;stroke:none;stroke-width:1.07064"
     x="106.93484"
     y="255.06308"
     id="text7605"
     transform="scale(0.94481994,1.0584027)"><tspan
       sodipodi:role="line"
       id="tspan7603"
       x="106.93484"
       y="255.06308"
       style="stroke-width:1.07064">PassXYZ</tspan></text></g></svg>
