<?xml version="1.0" encoding="UTF-8" standalone="no"?>
<svg
   width="456"
   height="456"
   viewBox="0 0 456 456"
   version="1.1"
   xml:space="preserve"
   style="fill-rule:evenodd;clip-rule:evenodd;stroke-linejoin:round;stroke-miterlimit:2;"
   id="svg10"
   sodipodi:docname="appiconfg.svg"
   inkscape:version="1.2 (dc2aedaf03, 2022-05-15)"
   xmlns:inkscape="http://www.inkscape.org/namespaces/inkscape"
   xmlns:sodipodi="http://sodipodi.sourceforge.net/DTD/sodipodi-0.dtd"
   xmlns="http://www.w3.org/2000/svg"
   xmlns:svg="http://www.w3.org/2000/svg"><defs
   id="defs14" /><sodipodi:namedview
   id="namedview12"
   pagecolor="#ffffff"
   bordercolor="#666666"
   borderopacity="1.0"
   inkscape:showpageshadow="2"
   inkscape:pageopacity="0.0"
   inkscape:pagecheckerboard="0"
   inkscape:deskcolor="#d1d1d1"
   showgrid="false"
   inkscape:zoom="1.8355263"
   inkscape:cx="227.7276"
   inkscape:cy="228.2724"
   inkscape:window-width="1920"
   inkscape:window-height="1017"
   inkscape:window-x="-8"
   inkscape:window-y="-8"
   inkscape:window-maximized="1"
   inkscape:current-layer="svg10" />
    <path
   id="path34625"
   style="display:inline;fill:#dfd8f7;fill-opacity:1;stroke-width:0.527061"
   d="m 189.32176,92.670691 c -10.72536,-0.142769 -21.415,3.245686 -31.29825,10.118739 -3.81786,2.65505 -42.06014,43.93855 -44.43122,47.96458 -10.97496,18.63527 -10.85662,38.73369 0.33424,56.76538 2.13863,3.44597 3.52881,4.89582 19.26877,20.09445 l 16.08349,15.53017 -0.66303,0.71508 -3.50804,3.78624 a 12.176082,12.31513 0 0 0 0.56089,17.40718 l 84.72318,80.28544 a 12.176082,12.31513 0 0 0 17.21065,-0.56661 L 358.15583,225.4268 a 12.176082,12.31513 0 0 0 -0.56088,-17.4072 l -84.72317,-80.28541 a 12.176082,12.31513 0 0 0 -17.21066,0.56729 l -4.15754,4.48763 -16.37443,-15.2154 c -15.95782,-14.8288 -17.5605,-16.20741 -21.07931,-18.139403 -8.0227,-4.404832 -16.38611,-6.652569 -24.72808,-6.763616 z m -1.38831,37.932769 a 21.999557,18.2219 44.879037 0 1 14.91708,6.78278 l 23.64217,22.40258 -50.52715,54.54549 -23.64149,-22.40395 a 21.999557,18.2219 44.879037 0 1 -3.58043,-28.50037 l 25.75511,-27.80378 a 21.999557,18.2219 44.879037 0 1 13.43471,-5.02275 z" />
      <path
   d="m 172.36591,223.23868 q 0,2.25819 -0.78935,4.19704 -0.76678,1.91605 -2.16503,3.33026 -1.73655,1.75637 -4.10455,2.64595 -2.36801,0.86678 -5.97639,0.86678 h -4.46539 v 12.65956 h -4.46537 v -33.96409 h 9.11119 q 3.02201,0 5.11939,0.52463 2.09738,0.50182 3.72115,1.5967 1.91697,1.30017 2.95437,3.23902 1.05998,1.93884 1.05998,4.90415 z m -4.6458,0.114 q 0,-1.75636 -0.60892,-3.05653 -0.60893,-1.30017 -1.8493,-2.12132 -1.08253,-0.7071 -2.48079,-1.00366 -1.37568,-0.31933 -3.49562,-0.31933 h -4.42028 v 13.57194 h 3.76626 q 2.7063,0 4.39772,-0.479 1.69145,-0.50182 2.7514,-1.5739 1.05998,-1.09487 1.48847,-2.3038 0.45106,-1.20894 0.45106,-2.7144 z"
   style="font-size:35.2778px;fill:#512bd4;stroke-width:1.3167"
   id="path825" />
      <path
   d="m 196.3617,246.93827 h -4.2173 v -2.7144 q -0.56381,0.38778 -1.53356,1.09488 -0.94721,0.6843 -1.84931,1.09488 -1.05996,0.52464 -2.43567,0.86679 -1.37569,0.36496 -3.225,0.36496 -3.40542,0 -5.77343,-2.281 -2.36801,-2.28101 -2.36801,-5.81657 0,-2.89686 1.21784,-4.67605 1.2404,-1.80198 3.51818,-2.82843 2.30035,-1.02642 5.52537,-1.3914 3.22499,-0.36496 6.92359,-0.54744 v -0.66148 q 0,-1.45984 -0.51871,-2.41787 -0.49615,-0.95803 -1.44337,-1.50547 -0.90208,-0.52461 -2.16501,-0.7071 -1.26295,-0.18248 -2.63866,-0.18248 -1.66886,0 -3.72114,0.4562 -2.05226,0.43338 -4.23985,1.27735 h -0.22554 v -4.35669 q 1.24039,-0.34216 3.58583,-0.75273 2.34548,-0.41059 4.62327,-0.41059 2.6612,0 4.62325,0.4562 1.98461,0.43339 3.42797,1.50546 1.4208,1.04927 2.16506,2.71438 0.7442,1.66512 0.7442,4.12861 z m -4.2173,-6.27275 v -7.09391 q -1.93951,0.114 -4.57814,0.34214 -2.61609,0.22811 -4.14967,0.66149 -1.82674,0.52463 -2.95436,1.64233 -1.12763,1.09489 -1.12763,3.03373 0,2.18974 1.30805,3.30745 1.30804,1.09488 3.99178,1.09488 2.2327,0 4.082,-0.86678 1.8493,-0.88961 3.42797,-2.12133 z"
   style="font-size:35.2778px;fill:#512bd4;stroke-width:1.3167"
   id="path827" />
      <path
   d="m 222.52255,239.59343 q 0,3.48994 -2.86417,5.72532 -2.84159,2.23539 -7.78059,2.23539 -2.7965,0 -5.14197,-0.6615 -2.32288,-0.68431 -3.90155,-1.48265 v -4.8129 h 0.22552 q 2.00717,1.52827 4.46538,2.44067 2.45821,0.88959 4.71346,0.88959 2.7965,0 4.37519,-0.91241 1.57866,-0.91241 1.57866,-2.87406 0,-1.50546 -0.857,-2.281 -0.85699,-0.77554 -3.29265,-1.32298 -0.9021,-0.20529 -2.36802,-0.47901 -1.44334,-0.27372 -2.63863,-0.59305 -3.31522,-0.8896 -4.71346,-2.60034 -1.3757,-1.73357 -1.3757,-4.24265 0,-1.57391 0.63146,-2.96531 0.65403,-1.39142 1.96207,-2.48628 1.26293,-1.07208 3.20246,-1.68796 1.96206,-0.63867 4.37517,-0.63867 2.25523,0 4.55559,0.57024 2.3229,0.54746 3.85646,1.3458 v 4.58479 h -0.22551 q -1.62378,-1.20892 -3.94669,-2.03008 -2.3229,-0.84395 -4.55559,-0.84395 -2.3229,0 -3.92413,0.91239 -1.60123,0.88958 -1.60123,2.66876 0,1.57389 0.96978,2.37225 0.94721,0.79835 3.06713,1.30017 1.17272,0.27371 2.61608,0.54743 1.4659,0.27372 2.43566,0.50184 2.95437,0.68428 4.55559,2.34941 1.60123,1.68793 1.60123,4.47075 z"
   style="font-size:35.2778px;fill:#512bd4;stroke-width:1.3167"
   id="path829" />
      <path
   d="m 246.58602,239.59343 q 0,3.48994 -2.86417,5.72532 -2.84161,2.23539 -7.7806,2.23539 -2.7965,0 -5.14197,-0.6615 -2.32288,-0.68431 -3.90156,-1.48265 v -4.8129 h 0.22554 q 2.00714,1.52827 4.46538,2.44067 2.4582,0.88959 4.71344,0.88959 2.7965,0 4.37517,-0.91241 1.57868,-0.91241 1.57868,-2.87406 0,-1.50546 -0.857,-2.281 -0.85698,-0.77554 -3.29265,-1.32298 -0.9021,-0.20529 -2.36799,-0.47901 -1.44337,-0.27372 -2.63867,-0.59305 -3.31519,-0.8896 -4.71343,-2.60034 -1.37571,-1.73357 -1.37571,-4.24265 0,-1.57391 0.63147,-2.96531 0.65403,-1.39142 1.96206,-2.48628 1.26294,-1.07208 3.20245,-1.68796 1.96206,-0.63867 4.37518,-0.63867 2.25524,0 4.55559,0.57024 2.32291,0.54746 3.85646,1.3458 v 4.58479 h -0.22552 q -1.62376,-1.20892 -3.94667,-2.03008 -2.32292,-0.84395 -4.5556,-0.84395 -2.32289,0 -3.92412,0.91239 -1.60122,0.88958 -1.60122,2.66876 0,1.57389 0.96974,2.37225 0.94719,0.79835 3.06714,1.30017 1.17272,0.27371 2.61609,0.54743 1.46589,0.27372 2.43567,0.50184 2.95436,0.68428 4.55558,2.34941 1.60124,1.68793 1.60124,4.47075 z"
   style="font-size:35.2778px;fill:#512bd4;stroke-width:1.3167"
   id="path831" />
      <path
   d="m 278.61048,212.97418 -11.59198,16.78815 11.56944,17.17594 h -5.16452 l -9.15629,-13.98252 -9.38181,13.98252 h -4.87134 l 11.70472,-16.97066 -11.4341,-16.99343 h 5.14196 l 9.04353,13.80005 9.24651,-13.80005 z"
   style="font-size:35.2778px;fill:#512bd4;stroke-width:1.3167"
   id="path833" />
      <path
   d="m 308.40225,212.97418 -11.81747,19.06915 v 14.89494 h -4.46538 v -14.41592 l -11.86259,-19.54817 h 4.93897 l 9.17888,15.19145 9.26903,-15.19145 z"
   style="font-size:35.2778px;fill:#512bd4;stroke-width:1.3167"
   id="path835" />
      <path
   d="M 337.58512,246.93827 H 311.3792 v -4.19704 l 20.59037,-25.75249 h -19.8236 v -4.01456 h 24.943 v 4.08298 l -20.79336,25.86653 h 21.28951 z"
   style="font-size:35.2778px;fill:#512bd4;stroke-width:1.3167"
   id="path837" />
</svg>
